<?xml version="1.0" encoding="UTF-8"?> <svg xmlns="http://www.w3.org/2000/svg" width="195" height="46" viewBox="0 0 195 46" fill="none"><path d="M10.22 38.3C17.5876 38.1815 24.8604 39.973 31.33 43.5C41.88 49.35 54.09 40.58 54.09 40.58C54.09 40.58 46.17 39.93 36.28 25.63C36.28 25.63 27.04 8.73999 16.49 6.14C16.49 6.14 7.92 4.18999 0 7.43999C0 7.43999 10.55 7.44 17.81 20.44C17.81 20.44 25.06 35.44 37.6 40.59C37.6 40.59 33.6 41.24 25.72 37.34C25.72 37.33 17.81 33.43 10.22 38.3Z" fill="#304DA1"></path><path d="M46.1664 32.78C46.1664 32.78 47.4864 8.78 68.5964 8.78C68.5964 8.78 66.5964 2.93 52.7664 8.78L56.0664 5.53C56.0664 5.53 36.2764 9.39 43.5264 28.23L46.1664 32.78Z" fill="#304DA1"></path><path d="M48.8125 36C50.7737 37.5126 53.0178 38.6176 55.4125 39.25L60.6825 36.65L57.3825 36C57.3825 36 55.4125 30.18 48.8125 36Z" fill="#97D8E6"></path><path d="M60.6775 10C60.6775 10 48.1475 13.9 46.1675 32.74C46.1675 32.74 38.9175 26.89 46.1675 15.84C46.1675 15.88 52.7675 7.44001 60.6775 10Z" fill="#97D8E6"></path><path d="M93.6052 15.8083C93.6052 18.4246 92.8603 20.687 91.3707 22.5957C89.7506 24.6719 87.6744 25.71 85.1419 25.71C84.6578 25.71 83.9269 25.6914 82.9493 25.6541C81.981 25.6169 81.2548 25.5983 80.7707 25.5983C80.3331 25.5983 79.672 25.6169 78.7875 25.6541C77.9124 25.6914 77.256 25.71 76.8184 25.71C76.5856 25.71 76.4692 25.5936 76.4692 25.3609C76.4692 24.346 76.5065 22.8144 76.581 20.7661C76.6648 18.7178 76.7067 17.1816 76.7067 16.1575C76.7067 15.0774 76.6694 13.4528 76.5949 11.2834C76.5204 9.11407 76.4832 7.48939 76.4832 6.40938C76.4832 6.21386 76.6042 6.1161 76.8463 6.1161C77.1908 6.1161 77.7029 6.12075 78.3825 6.13006C79.0715 6.13937 79.5882 6.14403 79.9327 6.14403C80.2493 6.14403 80.7334 6.13937 81.3852 6.13006C82.0369 6.12075 82.5304 6.1161 82.8655 6.1161C86.0963 6.1161 88.503 6.72594 90.0858 7.94561C91.2217 8.82079 92.1015 9.99857 92.7253 11.4789C93.3119 12.8569 93.6052 14.3 93.6052 15.8083ZM90.1836 15.8083C90.1836 13.7972 89.611 12.1586 88.4658 10.8924C87.274 9.5796 85.682 8.92321 83.6895 8.92321C82.0416 8.92321 81.3759 8.9139 81.6924 8.89528C80.6031 8.95114 80.0584 9.15132 80.0584 9.4958C80.0584 10.2127 80.0398 11.2881 80.0026 12.7219C79.9746 14.1464 79.9607 15.2171 79.9607 15.934C79.9607 16.6416 79.9746 17.703 80.0026 19.1182C80.0398 20.5334 80.0584 21.5948 80.0584 22.3024C80.0584 22.6562 80.6171 22.861 81.7343 22.9169C81.5853 22.9076 82.265 22.9029 83.7733 22.9029C84.844 22.9029 85.6959 22.7912 86.329 22.5677C87.1111 22.2884 87.8141 21.7717 88.4379 21.0175C89.6017 19.6023 90.1836 17.8659 90.1836 15.8083ZM108.507 18.9087C108.507 20.8546 107.869 22.5165 106.593 23.8945C105.29 25.319 103.674 26.0312 101.747 26.0312C99.8106 26.0312 98.1906 25.3236 96.8871 23.9084C95.6116 22.5398 94.9738 20.8825 94.9738 18.9366C94.9738 16.9907 95.6116 15.3335 96.8871 13.9648C98.1999 12.5683 99.8199 11.87 101.747 11.87C103.665 11.87 105.276 12.5683 106.579 13.9648C107.864 15.3242 108.507 16.9721 108.507 18.9087ZM105.56 18.9366C105.56 17.8008 105.211 16.8325 104.512 16.0318C103.786 15.1845 102.864 14.7609 101.747 14.7609C100.63 14.7609 99.7035 15.1799 98.968 16.0178C98.2697 16.8278 97.9206 17.8008 97.9206 18.9366C97.9206 20.0539 98.2744 21.0222 98.982 21.8415C99.7268 22.7074 100.649 23.1403 101.747 23.1403C102.855 23.1403 103.777 22.7074 104.512 21.8415C105.211 21.0222 105.56 20.0539 105.56 18.9366ZM114.023 6.33955L114.009 6.5211C113.804 9.9846 113.702 12.9593 113.702 15.4452C113.702 16.5531 113.72 18.2151 113.758 20.431C113.795 22.6375 113.814 24.2902 113.814 25.3888C113.814 25.6029 113.739 25.71 113.59 25.71H110.923C110.755 25.71 110.671 25.6029 110.671 25.3888C110.671 24.2902 110.681 22.6375 110.699 20.431C110.718 18.2151 110.727 16.5531 110.727 15.4452C110.727 14.4397 110.676 12.9314 110.574 10.9203C110.48 8.89993 110.434 7.39163 110.434 6.39541C110.434 6.2092 110.532 6.1161 110.727 6.1161C110.895 6.1161 111.146 6.13006 111.481 6.158C111.816 6.18593 112.068 6.19989 112.235 6.19989C112.412 6.19989 112.673 6.18593 113.018 6.158C113.362 6.13006 113.618 6.1161 113.786 6.1161C113.953 6.1161 114.032 6.19058 114.023 6.33955ZM120.336 6.33955L120.322 6.5211C120.117 9.9846 120.014 12.9593 120.014 15.4452C120.014 16.5531 120.033 18.2151 120.07 20.431C120.107 22.6375 120.126 24.2902 120.126 25.3888C120.126 25.6029 120.052 25.71 119.903 25.71H117.235C117.068 25.71 116.984 25.6029 116.984 25.3888C116.984 24.2902 116.993 22.6375 117.012 20.431C117.03 18.2151 117.04 16.5531 117.04 15.4452C117.04 14.4397 116.988 12.9314 116.886 10.9203C116.793 8.89993 116.746 7.39163 116.746 6.39541C116.746 6.2092 116.844 6.1161 117.04 6.1161C117.207 6.1161 117.459 6.13006 117.794 6.158C118.129 6.18593 118.38 6.19989 118.548 6.19989C118.725 6.19989 118.986 6.18593 119.33 6.158C119.675 6.13006 119.931 6.1161 120.098 6.1161C120.266 6.1161 120.345 6.19058 120.336 6.33955ZM136.689 13.071C136.689 13.1083 136.675 13.1921 136.648 13.3224C136.284 15.4545 136.103 17.2933 136.103 18.8389C136.103 18.932 136.219 21.0222 136.452 25.1095L136.466 25.305C136.475 25.575 136.35 25.71 136.089 25.71C135.838 25.71 135.451 25.7379 134.93 25.7938C134.418 25.859 134.036 25.8916 133.785 25.8916C133.608 25.8916 133.473 25.5657 133.38 24.914C133.286 24.2622 133.198 23.9364 133.114 23.9364C133.058 23.9364 132.807 24.1179 132.36 24.481C131.811 24.9279 131.299 25.2678 130.824 25.5005C130.088 25.8729 129.353 26.0591 128.617 26.0591C126.811 26.0591 125.289 25.3376 124.05 23.8945C122.877 22.5165 122.291 20.9105 122.291 19.0763C122.291 17.0094 122.882 15.3009 124.064 13.9509C125.303 12.545 126.932 11.842 128.952 11.842C130.377 11.842 131.62 12.3355 132.681 13.3224C132.84 13.5086 133.086 13.7786 133.421 14.1324C133.449 14.1604 133.477 14.1743 133.505 14.1743C133.561 14.1743 133.64 13.881 133.743 13.2945C133.845 12.7079 133.975 12.4146 134.134 12.4146C134.385 12.4146 134.855 12.4845 135.544 12.6241C136.308 12.7917 136.689 12.9407 136.689 13.071ZM133.128 18.9087C133.128 17.7635 132.788 16.7813 132.109 15.9619C131.392 15.0774 130.475 14.6352 129.357 14.6352C128.24 14.6352 127.309 15.0728 126.564 15.948C125.847 16.7859 125.489 17.7728 125.489 18.9087C125.489 20.0353 125.847 21.0129 126.564 21.8415C127.309 22.7074 128.24 23.1403 129.357 23.1403C130.447 23.1403 131.359 22.6981 132.095 21.8136C132.784 20.9849 133.128 20.0166 133.128 18.9087ZM146.968 12.5962C146.968 13.6203 146.898 14.5514 146.759 15.3893C146.731 15.6035 146.638 15.7105 146.479 15.7105C146.284 15.7105 145.986 15.6919 145.586 15.6547C145.195 15.6081 144.897 15.5849 144.692 15.5849C143.519 15.5849 142.769 15.9154 142.443 16.5764C142.248 16.9768 142.15 17.8101 142.15 19.0763V20.6125C142.15 21.1339 142.169 21.9253 142.206 22.9867C142.252 24.0481 142.276 24.8395 142.276 25.3609C142.276 25.6122 142.169 25.7379 141.955 25.7379C141.666 25.7379 141.228 25.7333 140.642 25.724C140.055 25.7147 139.618 25.71 139.329 25.71C139.115 25.71 139.008 25.5936 139.008 25.3609C139.008 24.6067 139.017 23.4708 139.036 21.9532C139.064 20.4356 139.078 19.2951 139.078 18.5316C139.078 16.2319 138.863 14.3838 138.435 12.9872C138.417 12.9127 138.407 12.8569 138.407 12.8196C138.407 12.7079 138.468 12.6288 138.589 12.5822C138.933 12.545 139.417 12.4891 140.041 12.4146C141.047 12.2284 141.512 12.1353 141.438 12.1353C141.587 12.1353 141.685 12.41 141.731 12.9593C141.778 13.5086 141.861 13.7833 141.982 13.7833C142.001 13.7833 142.024 13.774 142.052 13.7553C142.434 13.5133 142.816 13.2712 143.197 13.0291C143.616 12.7777 144.045 12.5915 144.482 12.4705C144.845 12.3588 145.311 12.3029 145.879 12.3029C146.605 12.3029 146.968 12.4007 146.968 12.5962ZM162.358 18.9646C162.358 20.808 161.786 22.4141 160.641 23.7827C159.421 25.2352 157.903 25.9614 156.088 25.9614C154.877 25.9614 153.811 25.6541 152.89 25.0397C152.517 24.7231 152.145 24.4112 151.772 24.1039C151.67 24.1319 151.6 24.4112 151.563 24.9419C151.535 25.4726 151.461 25.7379 151.339 25.7379H148.393C148.281 25.7379 148.225 25.6774 148.225 25.5564C148.225 25.5657 148.234 25.4819 148.253 25.305C148.402 23.8153 148.476 20.9663 148.476 16.758C148.476 15.0355 148.402 12.5077 148.253 9.17459C148.16 7.0518 148.113 6.12075 148.113 6.38145C148.113 6.13937 148.234 6.00437 148.476 5.97644C148.812 5.96713 149.31 5.94851 149.971 5.92058C150.101 5.91127 150.367 5.87868 150.767 5.82282C151.102 5.76696 151.372 5.73902 151.577 5.73902C151.726 5.73902 151.8 5.84609 151.8 6.06024C151.8 6.37679 151.777 6.86094 151.731 7.51267C151.684 8.1644 151.661 8.6532 151.661 8.97907C151.661 9.46322 151.637 10.1941 151.591 11.1717C151.554 12.14 151.535 12.8662 151.535 13.3503C151.535 13.7041 151.6 13.881 151.731 13.881C151.796 13.881 151.866 13.8298 151.94 13.7274C152.964 12.4519 154.319 11.8141 156.004 11.8141C157.931 11.8141 159.491 12.5357 160.683 13.9788C161.8 15.3381 162.358 17.0001 162.358 18.9646ZM159.202 18.8389C159.202 17.7309 158.853 16.7533 158.155 15.9061C157.41 15.003 156.493 14.5514 155.403 14.5514C154.286 14.5514 153.355 14.9936 152.61 15.8781C151.893 16.7161 151.535 17.703 151.535 18.8389C151.535 19.9934 151.893 20.9896 152.61 21.8275C153.355 22.7027 154.296 23.1403 155.431 23.1403C156.53 23.1403 157.447 22.6888 158.183 21.7856C158.862 20.9477 159.202 19.9654 159.202 18.8389ZM168.001 9.007C168.001 10.1522 167.363 10.7248 166.087 10.7248C164.793 10.7248 164.146 10.1522 164.146 9.007C164.146 8.49493 164.346 8.0713 164.747 7.73612C165.119 7.41957 165.566 7.26129 166.087 7.26129C166.609 7.26129 167.056 7.42422 167.428 7.75009C167.81 8.07595 168.001 8.49493 168.001 9.007ZM167.903 12.7917C167.903 13.5086 167.856 14.5933 167.763 16.0457C167.679 17.4889 167.637 18.5735 167.637 19.2997C167.637 19.9794 167.651 20.9989 167.679 22.3582C167.707 23.7083 167.721 24.7184 167.721 25.3888C167.721 25.5843 167.637 25.6821 167.47 25.6821H164.747C164.551 25.6821 164.453 25.4912 164.453 25.1095C164.453 24.4671 164.467 23.5034 164.495 22.2186C164.532 20.9244 164.551 19.9515 164.551 19.2997C164.551 18.5735 164.495 17.4842 164.383 16.0318C164.281 14.5793 164.23 13.49 164.23 12.7638C164.23 12.6055 164.328 12.5264 164.523 12.5264C164.691 12.5264 164.947 12.5496 165.291 12.5962C165.645 12.6427 165.91 12.666 166.087 12.666C166.264 12.666 166.525 12.6427 166.869 12.5962C167.223 12.5496 167.488 12.5264 167.665 12.5264C167.824 12.5264 167.903 12.6148 167.903 12.7917ZM178.67 12.5962C178.67 13.6203 178.601 14.5514 178.461 15.3893C178.433 15.6035 178.34 15.7105 178.182 15.7105C177.986 15.7105 177.688 15.6919 177.288 15.6547C176.897 15.6081 176.599 15.5849 176.394 15.5849C175.221 15.5849 174.471 15.9154 174.145 16.5764C173.95 16.9768 173.852 17.8101 173.852 19.0763V20.6125C173.852 21.1339 173.871 21.9253 173.908 22.9867C173.955 24.0481 173.978 24.8395 173.978 25.3609C173.978 25.6122 173.871 25.7379 173.657 25.7379C173.368 25.7379 172.93 25.7333 172.344 25.724C171.757 25.7147 171.32 25.71 171.031 25.71C170.817 25.71 170.71 25.5936 170.71 25.3609C170.71 24.6067 170.719 23.4708 170.738 21.9532C170.766 20.4356 170.78 19.2951 170.78 18.5316C170.78 16.2319 170.566 14.3838 170.137 12.9872C170.119 12.9127 170.109 12.8569 170.109 12.8196C170.109 12.7079 170.17 12.6288 170.291 12.5822C170.635 12.545 171.12 12.4891 171.743 12.4146C172.749 12.2284 173.214 12.1353 173.14 12.1353C173.289 12.1353 173.387 12.41 173.433 12.9593C173.48 13.5086 173.564 13.7833 173.685 13.7833C173.703 13.7833 173.727 13.774 173.754 13.7553C174.136 13.5133 174.518 13.2712 174.9 13.0291C175.319 12.7777 175.747 12.5915 176.184 12.4705C176.548 12.3588 177.013 12.3029 177.581 12.3029C178.307 12.3029 178.67 12.4007 178.67 12.5962ZM193.628 6.22782C193.628 7.42888 193.572 9.23045 193.46 11.6326C193.358 14.0254 193.306 15.8176 193.306 17.0094C193.306 20.687 193.386 23.4708 193.544 25.3609L193.558 25.5424C193.567 25.6355 193.441 25.696 193.181 25.724C193.004 25.7426 192.752 25.7426 192.427 25.724C192.036 25.696 191.854 25.6821 191.882 25.6821C191.742 25.6821 191.537 25.696 191.267 25.724C190.997 25.7519 190.793 25.7659 190.653 25.7659C190.523 25.7659 190.443 25.4447 190.416 24.8022C190.397 24.1505 190.364 23.82 190.318 23.8107C190.262 23.8386 190.192 23.8991 190.108 23.9922C188.833 25.3702 187.366 26.0591 185.709 26.0591C183.828 26.0591 182.283 25.3422 181.072 23.9084C179.927 22.5584 179.355 20.9291 179.355 19.0204C179.355 17.0373 179.932 15.3707 181.086 14.0207C182.297 12.6055 183.875 11.8979 185.821 11.8979C186.994 11.8979 188.018 12.2424 188.893 12.9314C189.294 13.2759 189.689 13.625 190.08 13.9788C190.155 13.9509 190.192 13.8857 190.192 13.7833V9.25839C190.192 8.95114 190.178 8.48562 190.15 7.86181C190.122 7.23801 190.108 6.76783 190.108 6.45128C190.108 6.22782 190.183 6.1161 190.332 6.1161C190.676 6.1161 191.188 6.08817 191.868 6.0323C192.548 5.96713 193.055 5.93454 193.39 5.93454C193.549 5.93454 193.628 6.0323 193.628 6.22782ZM190.136 18.9366C190.136 17.8194 189.792 16.8371 189.103 15.9899C188.367 15.0867 187.455 14.6352 186.366 14.6352C185.22 14.6352 184.275 15.0821 183.53 15.9759C182.823 16.8138 182.469 17.8194 182.469 18.9925C182.469 20.1098 182.837 21.0827 183.572 21.9113C184.327 22.7865 185.258 23.2241 186.366 23.2241C187.483 23.2241 188.405 22.7819 189.131 21.8974C189.801 21.0687 190.136 20.0818 190.136 18.9366Z" fill="#464646"></path><path d="M82.0683 32.0964C81.9731 32.2536 81.8421 32.4918 81.6753 32.811C81.6229 32.9587 81.53 33.1683 81.3966 33.4398C81.3681 33.4827 81.3299 33.5041 81.2823 33.5041C81.2871 33.5041 81.056 33.4207 80.5892 33.254C80.1271 33.0825 79.746 32.9968 79.4459 32.9968C78.5694 32.9968 78.1311 33.3826 78.1311 34.1544C78.1311 34.5831 78.4384 34.957 79.0529 35.2762C80.0866 35.8145 80.6583 36.1242 80.7678 36.2051C81.3824 36.6958 81.6896 37.358 81.6896 38.1916C81.6896 39.2587 81.268 40.0995 80.4248 40.714C79.6674 41.2666 78.7361 41.5429 77.6309 41.5429C77.1164 41.5429 76.8401 41.4857 76.802 41.3714C76.783 41.1904 76.7401 40.926 76.6734 40.5783C76.6353 40.4353 76.5757 40.221 76.4948 39.9351C76.4805 39.8923 76.4733 39.8518 76.4733 39.8137C76.4733 39.747 76.5091 39.7136 76.5805 39.7136C76.6948 39.7136 76.8687 39.7255 77.1021 39.7494C77.3403 39.7732 77.519 39.7851 77.6381 39.7851C79.1148 39.7851 79.8532 39.3087 79.8532 38.356C79.8532 37.8891 79.5555 37.4842 78.96 37.1412C77.8739 36.5219 77.3189 36.2004 77.2951 36.1766C76.6948 35.6907 76.3947 35.038 76.3947 34.2187C76.3947 33.3326 76.6853 32.6228 77.2665 32.0893C77.8334 31.5748 78.567 31.3176 79.4673 31.3176C79.8484 31.3176 80.2867 31.3795 80.7821 31.5033C81.3204 31.6415 81.7253 31.8082 81.9969 32.0035C82.0207 32.0226 82.0445 32.0536 82.0683 32.0964ZM89.6355 37.9201C89.6355 38.9157 89.3092 39.766 88.6566 40.4711C87.9896 41.1999 87.1631 41.5643 86.177 41.5643C85.1862 41.5643 84.3573 41.2023 83.6904 40.4782C83.0377 39.7779 82.7114 38.93 82.7114 37.9344C82.7114 36.9388 83.0377 36.0908 83.6904 35.3905C84.3621 34.676 85.191 34.3187 86.177 34.3187C87.1584 34.3187 87.9825 34.676 88.6494 35.3905C89.3068 36.0861 89.6355 36.9292 89.6355 37.9201ZM88.1278 37.9344C88.1278 37.3532 87.9492 36.8578 87.5919 36.4481C87.2203 36.0146 86.7487 35.7978 86.177 35.7978C85.6054 35.7978 85.1314 36.0122 84.7551 36.4409C84.3978 36.8554 84.2192 37.3532 84.2192 37.9344C84.2192 38.506 84.4002 39.0015 84.7622 39.4207C85.1433 39.8637 85.6149 40.0852 86.177 40.0852C86.7439 40.0852 87.2155 39.8637 87.5919 39.4207C87.9492 39.0015 88.1278 38.506 88.1278 37.9344ZM92.458 31.4891L92.4509 31.5819C92.3461 33.3541 92.2937 34.8761 92.2937 36.148C92.2937 36.7149 92.3032 37.5652 92.3223 38.699C92.3413 39.828 92.3508 40.6735 92.3508 41.2356C92.3508 41.3452 92.3127 41.4 92.2365 41.4H90.8717C90.786 41.4 90.7431 41.3452 90.7431 41.2356C90.7431 40.6735 90.7478 39.828 90.7574 38.699C90.7669 37.5652 90.7717 36.7149 90.7717 36.148C90.7717 35.6335 90.7455 34.8618 90.6931 33.8328C90.6454 32.7991 90.6216 32.0274 90.6216 31.5176C90.6216 31.4224 90.6716 31.3747 90.7717 31.3747C90.8574 31.3747 90.986 31.3819 91.1575 31.3962C91.329 31.4104 91.4576 31.4176 91.5434 31.4176C91.6339 31.4176 91.7673 31.4104 91.9435 31.3962C92.1198 31.3819 92.2508 31.3747 92.3366 31.3747C92.4223 31.3747 92.4628 31.4128 92.458 31.4891ZM100.497 34.9189C100.497 35.2667 100.483 35.7931 100.454 36.4981C100.425 37.1984 100.411 37.7248 100.411 38.0773C100.411 38.425 100.421 38.9467 100.44 39.6422C100.463 40.3329 100.475 40.8522 100.475 41.1999C100.475 41.2952 100.43 41.3571 100.34 41.3857C100.302 41.3952 99.818 41.4 98.8891 41.4C98.8319 41.4 98.7962 41.2214 98.7819 40.8641C98.7724 40.5068 98.7462 40.3282 98.7033 40.3282C98.6795 40.3282 98.6437 40.3496 98.5961 40.3925C97.8006 41.0832 97.0145 41.4286 96.238 41.4286C95.1853 41.4286 94.4898 41.0475 94.1515 40.2853C93.9419 39.8137 93.8371 38.9657 93.8371 37.7414C93.8371 36.6363 93.9253 35.7002 94.1015 34.9332C94.1444 34.7474 94.223 34.6546 94.3373 34.6546C94.4755 34.6546 94.6827 34.6569 94.959 34.6617C95.2353 34.6665 95.4425 34.6688 95.5807 34.6688C95.6759 34.6688 95.7236 34.7212 95.7236 34.826C95.7236 35.0118 95.6926 35.3215 95.6307 35.755C95.564 36.2171 95.5283 36.5434 95.5235 36.7339C95.5092 37.0197 95.5021 37.3341 95.5021 37.6771C95.5021 38.5108 95.5616 39.0705 95.6807 39.3564C95.8855 39.8708 96.3405 40.1281 97.0455 40.1281C97.3456 40.1281 97.7005 39.9804 98.1102 39.6851C98.5437 39.3754 98.7676 39.0777 98.7819 38.7919C98.8057 38.4346 98.8176 37.1769 98.8176 35.019C98.8176 34.7856 98.9153 34.6688 99.1106 34.6688H100.29C100.428 34.6688 100.497 34.7522 100.497 34.9189ZM105.935 40.0852C105.935 40.19 105.925 40.3329 105.906 40.5139C105.882 40.7378 105.868 40.8831 105.863 40.9498C105.858 41.0356 105.851 41.088 105.842 41.107C105.823 41.1404 105.777 41.1737 105.706 41.2071C105.315 41.3928 104.701 41.4857 103.862 41.4857C102.748 41.4857 102.19 40.9808 102.19 39.9709C102.19 39.566 102.2 38.9586 102.219 38.1487C102.238 37.3341 102.247 36.7244 102.247 36.3195C102.247 36.1242 102.15 36.0194 101.955 36.0051C101.778 36.0051 101.604 36.0027 101.433 35.9979C101.333 35.9741 101.283 35.7788 101.283 35.412C101.283 35.2738 101.292 35.1285 101.311 34.9761C101.326 34.8618 101.402 34.7927 101.54 34.7689C101.659 34.7689 101.776 34.7665 101.89 34.7617C102.109 34.7522 102.219 34.6546 102.219 34.4688C102.219 34.2782 102.212 33.9876 102.197 33.597C102.188 33.2064 102.183 32.9134 102.183 32.7181C102.183 32.3703 102.25 32.1965 102.383 32.1965C102.426 32.1965 102.874 32.2703 103.727 32.418C103.836 32.4323 103.891 32.4847 103.891 32.5752C103.891 32.7848 103.874 33.0992 103.841 33.5184C103.812 33.9376 103.798 34.252 103.798 34.4616C103.798 34.5998 103.862 34.6688 103.991 34.6688H105.706C105.787 34.6688 105.827 34.6974 105.827 34.7546C105.827 34.8118 105.818 34.9046 105.799 35.0333C105.785 35.1571 105.777 35.25 105.777 35.3119C105.777 35.3834 105.78 35.493 105.785 35.6406C105.789 35.7883 105.792 35.8979 105.792 35.9693C105.792 36.0599 105.725 36.1051 105.592 36.1051C105.401 36.1051 105.113 36.0932 104.727 36.0694C104.341 36.0408 104.053 36.0265 103.862 36.0265C103.824 36.0265 103.796 36.1623 103.777 36.4338C103.753 36.772 103.741 37.246 103.741 37.8558V38.9205C103.741 39.3302 103.779 39.616 103.855 39.7779C103.97 40.0257 104.205 40.1495 104.563 40.1495C104.71 40.1495 104.927 40.1186 105.213 40.0566C105.499 39.9899 105.711 39.9566 105.849 39.9566C105.906 39.9566 105.935 39.9995 105.935 40.0852ZM108.814 32.8539C108.814 33.4398 108.488 33.7328 107.835 33.7328C107.173 33.7328 106.842 33.4398 106.842 32.8539C106.842 32.5919 106.945 32.3751 107.149 32.2036C107.34 32.0416 107.569 31.9607 107.835 31.9607C108.102 31.9607 108.331 32.044 108.521 32.2108C108.717 32.3775 108.814 32.5919 108.814 32.8539ZM108.764 34.7903C108.764 35.1571 108.74 35.7121 108.693 36.4552C108.65 37.1936 108.629 37.7486 108.629 38.1202C108.629 38.4679 108.636 38.9895 108.65 39.6851C108.664 40.3758 108.671 40.8927 108.671 41.2356C108.671 41.3357 108.629 41.3857 108.543 41.3857H107.149C107.049 41.3857 106.999 41.288 106.999 41.0927C106.999 40.764 107.006 40.271 107.021 39.6136C107.04 38.9514 107.049 38.4536 107.049 38.1202C107.049 37.7486 107.021 37.1912 106.964 36.4481C106.911 35.705 106.885 35.1476 106.885 34.776C106.885 34.695 106.935 34.6546 107.035 34.6546C107.121 34.6546 107.252 34.6665 107.428 34.6903C107.609 34.7141 107.745 34.726 107.835 34.726C107.926 34.726 108.059 34.7141 108.236 34.6903C108.417 34.6665 108.552 34.6546 108.643 34.6546C108.724 34.6546 108.764 34.6998 108.764 34.7903ZM116.66 37.9201C116.66 38.9157 116.334 39.766 115.681 40.4711C115.014 41.1999 114.188 41.5643 113.202 41.5643C112.211 41.5643 111.382 41.2023 110.715 40.4782C110.062 39.7779 109.736 38.93 109.736 37.9344C109.736 36.9388 110.062 36.0908 110.715 35.3905C111.387 34.676 112.216 34.3187 113.202 34.3187C114.183 34.3187 115.007 34.676 115.674 35.3905C116.331 36.0861 116.66 36.9292 116.66 37.9201ZM115.152 37.9344C115.152 37.3532 114.974 36.8578 114.617 36.4481C114.245 36.0146 113.773 35.7978 113.202 35.7978C112.63 35.7978 112.156 36.0122 111.78 36.4409C111.422 36.8554 111.244 37.3532 111.244 37.9344C111.244 38.506 111.425 39.0015 111.787 39.4207C112.168 39.8637 112.64 40.0852 113.202 40.0852C113.769 40.0852 114.24 39.8637 114.617 39.4207C114.974 39.0015 115.152 38.506 115.152 37.9344ZM123.97 41.2571C123.97 41.3619 123.922 41.4143 123.827 41.4143C123.67 41.4143 123.434 41.4119 123.12 41.4071C122.81 41.4024 122.577 41.4 122.42 41.4C122.334 41.4 122.291 41.3309 122.291 41.1928C122.291 40.9593 122.298 40.6045 122.312 40.1281C122.327 39.6517 122.334 39.2944 122.334 39.0562C122.334 38.8657 122.331 38.5822 122.327 38.2059C122.322 37.8248 122.319 37.539 122.319 37.3484C122.319 36.8054 122.241 36.4219 122.084 36.198C121.893 35.9312 121.541 35.7978 121.026 35.7978C120.788 35.7978 120.457 35.9312 120.033 36.198C119.585 36.4791 119.361 36.7292 119.361 36.9483V41.2356C119.361 41.3547 119.316 41.4143 119.225 41.4143C119.073 41.4143 118.844 41.4119 118.539 41.4071C118.235 41.4024 118.006 41.4 117.853 41.4C117.753 41.4 117.703 41.3452 117.703 41.2356C117.703 40.8593 117.708 40.2948 117.718 39.5421C117.732 38.7895 117.739 38.2226 117.739 37.8415C117.739 36.8268 117.632 35.8907 117.418 35.0333C117.403 34.9904 117.396 34.9594 117.396 34.9404C117.396 34.8927 117.427 34.8594 117.489 34.8403C117.522 34.8356 117.794 34.7927 118.304 34.7117C118.818 34.626 119.087 34.5831 119.111 34.5831C119.14 34.5831 119.159 34.6212 119.168 34.6974C119.192 34.9928 119.247 35.2905 119.333 35.5906C119.58 35.3953 119.907 35.1524 120.312 34.8618C120.812 34.5569 121.295 34.4045 121.762 34.4045C122.658 34.4045 123.27 34.6641 123.599 35.1833C123.841 35.5644 123.963 36.1813 123.963 37.034C123.963 37.1817 123.958 37.408 123.949 37.7129C123.944 38.0177 123.942 38.2464 123.942 38.3988C123.942 38.718 123.946 39.1944 123.956 39.828C123.965 40.4615 123.97 40.9379 123.97 41.2571ZM128.679 39.1991C128.679 39.9089 128.396 40.4782 127.829 40.9069C127.314 41.2976 126.688 41.4929 125.949 41.4929C125.664 41.4929 125.502 41.4857 125.464 41.4714C125.383 41.4333 125.342 41.3166 125.342 41.1213C125.342 41.0165 125.328 40.8593 125.299 40.6497C125.275 40.4401 125.263 40.2853 125.263 40.1852C125.263 40.1233 125.306 40.0828 125.392 40.0638C125.454 40.0495 125.542 40.0495 125.656 40.0638C125.804 40.0781 125.876 40.0852 125.871 40.0852C126.771 40.0852 127.221 39.8089 127.221 39.2563C127.221 38.9943 127.024 38.7537 126.628 38.5346C125.985 38.1821 125.616 37.9653 125.521 37.8844C125.125 37.5461 124.928 37.1031 124.928 36.5553C124.928 35.8407 125.197 35.2834 125.735 34.8832C126.221 34.5259 126.835 34.3473 127.579 34.3473C127.645 34.3473 127.693 34.3783 127.722 34.4402C127.755 34.5021 127.814 34.695 127.9 35.019C127.991 35.3429 128.036 35.5382 128.036 35.6049C128.036 35.6573 127.991 35.6907 127.9 35.705C127.595 35.7478 127.288 35.7883 126.978 35.8264C126.612 35.9265 126.428 36.1265 126.428 36.4267C126.428 36.641 126.621 36.8578 127.007 37.0769C127.579 37.3961 127.941 37.6271 128.093 37.77C128.484 38.1416 128.679 38.618 128.679 39.1991ZM141.105 41.3428C141.105 41.3809 141.067 41.4 140.991 41.4C140.9 41.4 140.762 41.3928 140.576 41.3786C140.391 41.3643 140.253 41.3571 140.162 41.3571C140.062 41.3571 139.912 41.3643 139.712 41.3786C139.517 41.3928 139.369 41.4 139.269 41.4C139.159 41.4 139.076 41.3404 139.019 41.2214C138.866 40.8974 138.433 39.8947 137.718 38.2131C137.647 38.0416 137.473 37.9368 137.197 37.8987C137.135 37.8939 136.918 37.8915 136.546 37.8915C135.889 37.8915 135.498 37.901 135.374 37.9201C135.274 37.9344 135.224 38.0559 135.224 38.2845C135.224 38.618 135.239 39.1182 135.267 39.7851C135.301 40.4472 135.317 40.9427 135.317 41.2714C135.317 41.3714 135.27 41.4214 135.174 41.4214C135.079 41.4214 134.934 41.4119 134.739 41.3928C134.548 41.369 134.403 41.3571 134.303 41.3571C134.222 41.3571 134.098 41.3643 133.931 41.3786C133.764 41.3928 133.64 41.4 133.56 41.4C133.44 41.4 133.381 41.3452 133.381 41.2356C133.381 40.7069 133.405 39.9137 133.452 38.8562C133.505 37.7938 133.531 36.9983 133.531 36.4695C133.531 34.9642 133.476 33.3588 133.367 31.6534L133.359 31.5391C133.355 31.4438 133.455 31.3962 133.66 31.3962C134.069 31.3962 134.681 31.3866 135.496 31.3676C136.315 31.3438 136.927 31.3318 137.332 31.3318C138.39 31.3318 139.238 31.5843 139.876 32.0893C140.581 32.6466 140.934 33.4374 140.934 34.4616C140.934 35.1667 140.838 35.7216 140.648 36.1265C140.448 36.5553 140.076 36.9626 139.533 37.3484C139.443 37.4104 139.397 37.4699 139.397 37.5271C139.397 37.5938 139.681 38.2273 140.248 39.4278C140.819 40.6283 141.105 41.2666 141.105 41.3428ZM139.147 34.8618C139.147 33.9995 138.9 33.4231 138.404 33.1325C138.037 32.9182 137.378 32.811 136.425 32.811C135.653 32.811 135.26 32.8729 135.246 32.9968C135.213 33.254 135.196 33.9424 135.196 35.0618V36.4267C135.21 36.4362 135.241 36.4457 135.289 36.4552C135.374 36.4648 135.515 36.4767 135.71 36.491C136.163 36.5148 136.651 36.5267 137.175 36.5267C138.49 36.5267 139.147 35.9717 139.147 34.8618ZM148.122 37.5628C148.122 37.9153 147.97 38.1511 147.665 38.2702C147.46 38.3464 145.986 38.487 143.242 38.6918C143.304 39.111 143.535 39.4683 143.935 39.7637C144.316 40.0447 144.726 40.1852 145.164 40.1852C145.917 40.1852 146.607 39.9423 147.236 39.4564C147.312 39.3945 147.389 39.3325 147.465 39.2706C147.503 39.2706 147.527 39.2754 147.536 39.2849C147.551 39.2944 147.641 39.4612 147.808 39.7851C147.975 40.1043 148.058 40.2758 148.058 40.2996C148.058 40.3282 148.02 40.3829 147.944 40.4639C147.243 41.2071 146.345 41.5786 145.25 41.5786C144.145 41.5786 143.263 41.2499 142.606 40.5925C141.948 39.9304 141.62 39.0491 141.62 37.9487C141.62 36.9673 141.934 36.1123 142.563 35.3834C143.225 34.626 144.037 34.2473 145 34.2473C145.895 34.2473 146.643 34.5759 147.243 35.2333C147.829 35.8717 148.122 36.6482 148.122 37.5628ZM146.422 37.1269C146.422 36.7315 146.264 36.3814 145.95 36.0765C145.64 35.7716 145.29 35.6192 144.9 35.6192C144.461 35.6192 144.071 35.7955 143.728 36.148C143.389 36.5005 143.22 36.8959 143.22 37.3341C143.22 37.4342 143.306 37.4842 143.478 37.4842C144.183 37.4842 145.026 37.4128 146.007 37.2698C146.283 37.2317 146.422 37.1841 146.422 37.1269ZM155.997 31.4319C155.997 32.0464 155.968 32.9682 155.911 34.1972C155.859 35.4215 155.832 36.3385 155.832 36.9483C155.832 38.83 155.873 40.2543 155.954 41.2214L155.961 41.3142C155.966 41.3619 155.901 41.3928 155.768 41.4071C155.678 41.4167 155.549 41.4167 155.382 41.4071C155.182 41.3928 155.089 41.3857 155.103 41.3857C155.032 41.3857 154.927 41.3928 154.789 41.4071C154.651 41.4214 154.546 41.4286 154.475 41.4286C154.408 41.4286 154.367 41.2642 154.353 40.9355C154.344 40.6021 154.327 40.433 154.303 40.4282C154.275 40.4425 154.239 40.4734 154.196 40.5211C153.543 41.2261 152.793 41.5786 151.945 41.5786C150.983 41.5786 150.192 41.2118 149.573 40.4782C148.987 39.7875 148.694 38.9538 148.694 37.9773C148.694 36.9626 148.989 36.1099 149.58 35.4191C150.199 34.695 151.007 34.333 152.002 34.333C152.603 34.333 153.127 34.5093 153.574 34.8618C153.779 35.038 153.982 35.2167 154.182 35.3977C154.22 35.3834 154.239 35.3501 154.239 35.2977V32.9825C154.239 32.8253 154.232 32.5871 154.217 32.2679C154.203 31.9488 154.196 31.7082 154.196 31.5462C154.196 31.4319 154.234 31.3747 154.31 31.3747C154.487 31.3747 154.749 31.3604 155.096 31.3318C155.444 31.2985 155.704 31.2818 155.875 31.2818C155.956 31.2818 155.997 31.3318 155.997 31.4319ZM154.21 37.9344C154.21 37.3627 154.034 36.8602 153.682 36.4267C153.305 35.9646 152.838 35.7335 152.281 35.7335C151.695 35.7335 151.212 35.9622 150.83 36.4195C150.468 36.8482 150.287 37.3627 150.287 37.963C150.287 38.5346 150.476 39.0324 150.852 39.4564C151.238 39.9042 151.714 40.1281 152.281 40.1281C152.853 40.1281 153.324 39.9018 153.696 39.4492C154.039 39.0253 154.21 38.5203 154.21 37.9344ZM163.328 37.5628C163.328 37.9153 163.176 38.1511 162.871 38.2702C162.666 38.3464 161.192 38.487 158.448 38.6918C158.51 39.111 158.741 39.4683 159.141 39.7637C159.522 40.0447 159.932 40.1852 160.37 40.1852C161.122 40.1852 161.813 39.9423 162.442 39.4564C162.518 39.3945 162.594 39.3325 162.671 39.2706C162.709 39.2706 162.733 39.2754 162.742 39.2849C162.756 39.2944 162.847 39.4612 163.014 39.7851C163.18 40.1043 163.264 40.2758 163.264 40.2996C163.264 40.3282 163.226 40.3829 163.149 40.4639C162.449 41.2071 161.551 41.5786 160.456 41.5786C159.35 41.5786 158.469 41.2499 157.812 40.5925C157.154 39.9304 156.826 39.0491 156.826 37.9487C156.826 36.9673 157.14 36.1123 157.769 35.3834C158.431 34.626 159.243 34.2473 160.205 34.2473C161.101 34.2473 161.849 34.5759 162.449 35.2333C163.035 35.8717 163.328 36.6482 163.328 37.5628ZM161.627 37.1269C161.627 36.7315 161.47 36.3814 161.156 36.0765C160.846 35.7716 160.496 35.6192 160.105 35.6192C159.667 35.6192 159.277 35.7955 158.934 36.148C158.595 36.5005 158.426 36.8959 158.426 37.3341C158.426 37.4342 158.512 37.4842 158.683 37.4842C159.388 37.4842 160.232 37.4128 161.213 37.2698C161.489 37.2317 161.627 37.1841 161.627 37.1269ZM168.023 32.2393C168.023 32.2965 167.98 32.3298 167.894 32.3394C167.661 32.3632 167.43 32.3846 167.201 32.4037C166.929 32.4418 166.722 32.5371 166.579 32.6895C166.346 32.942 166.229 33.5827 166.229 34.6117C166.386 34.6117 166.634 34.6164 166.972 34.626C167.311 34.6355 167.565 34.6403 167.737 34.6403C167.851 34.6403 167.908 34.6831 167.908 34.7689C167.908 34.9023 167.913 35.1023 167.923 35.3691C167.932 35.6311 167.937 35.8264 167.937 35.955C167.937 36.0456 167.889 36.0908 167.794 36.0908C167.627 36.0908 167.375 36.0837 167.037 36.0694C166.698 36.0503 166.448 36.0408 166.286 36.0408V38.1773C166.286 38.5108 166.298 39.0157 166.322 39.6922C166.346 40.3686 166.358 40.8736 166.358 41.2071C166.358 41.3357 166.31 41.4 166.215 41.4H164.907C164.783 41.4 164.721 41.3262 164.721 41.1785V36.2623C164.721 36.1337 164.576 36.0718 164.286 36.0765C163.971 36.0813 163.804 36.0694 163.785 36.0408C163.771 36.0265 163.764 35.9384 163.764 35.7764C163.764 35.6716 163.759 35.5168 163.75 35.3119C163.74 35.1023 163.735 34.9451 163.735 34.8403C163.735 34.7403 164.038 34.6736 164.643 34.6403C164.629 34.3354 164.621 34.0877 164.621 33.8971C164.621 33.0539 164.771 32.437 165.072 32.0464C165.338 31.6939 165.729 31.4176 166.243 31.2175C166.706 31.0365 167.184 30.946 167.68 30.946C167.727 30.946 167.761 30.9722 167.78 31.0246C167.785 31.0341 167.825 31.2366 167.901 31.632C167.982 32.0226 168.023 32.225 168.023 32.2393ZM170.495 32.8539C170.495 33.4398 170.169 33.7328 169.516 33.7328C168.854 33.7328 168.523 33.4398 168.523 32.8539C168.523 32.5919 168.625 32.3751 168.83 32.2036C169.021 32.0416 169.249 31.9607 169.516 31.9607C169.783 31.9607 170.012 32.044 170.202 32.2108C170.397 32.3775 170.495 32.5919 170.495 32.8539ZM170.445 34.7903C170.445 35.1571 170.421 35.7121 170.374 36.4552C170.331 37.1936 170.309 37.7486 170.309 38.1202C170.309 38.4679 170.316 38.9895 170.331 39.6851C170.345 40.3758 170.352 40.8927 170.352 41.2356C170.352 41.3357 170.309 41.3857 170.224 41.3857H168.83C168.73 41.3857 168.68 41.288 168.68 41.0927C168.68 40.764 168.687 40.271 168.702 39.6136C168.721 38.9514 168.73 38.4536 168.73 38.1202C168.73 37.7486 168.702 37.1912 168.644 36.4481C168.592 35.705 168.566 35.1476 168.566 34.776C168.566 34.695 168.616 34.6546 168.716 34.6546C168.802 34.6546 168.933 34.6665 169.109 34.6903C169.29 34.7141 169.426 34.726 169.516 34.726C169.607 34.726 169.74 34.7141 169.916 34.6903C170.097 34.6665 170.233 34.6546 170.324 34.6546C170.405 34.6546 170.445 34.6998 170.445 34.7903ZM178.162 41.2571C178.162 41.3619 178.115 41.4143 178.019 41.4143C177.862 41.4143 177.626 41.4119 177.312 41.4071C177.002 41.4024 176.769 41.4 176.612 41.4C176.526 41.4 176.483 41.3309 176.483 41.1928C176.483 40.9593 176.49 40.6045 176.505 40.1281C176.519 39.6517 176.526 39.2944 176.526 39.0562C176.526 38.8657 176.524 38.5822 176.519 38.2059C176.514 37.8248 176.512 37.539 176.512 37.3484C176.512 36.8054 176.433 36.4219 176.276 36.198C176.085 35.9312 175.733 35.7978 175.218 35.7978C174.98 35.7978 174.649 35.9312 174.225 36.198C173.777 36.4791 173.553 36.7292 173.553 36.9483V41.2356C173.553 41.3547 173.508 41.4143 173.418 41.4143C173.265 41.4143 173.037 41.4119 172.732 41.4071C172.427 41.4024 172.198 41.4 172.046 41.4C171.946 41.4 171.896 41.3452 171.896 41.2356C171.896 40.8593 171.9 40.2948 171.91 39.5421C171.924 38.7895 171.931 38.2226 171.931 37.8415C171.931 36.8268 171.824 35.8907 171.61 35.0333C171.596 34.9904 171.588 34.9594 171.588 34.9404C171.588 34.8927 171.619 34.8594 171.681 34.8403C171.715 34.8356 171.986 34.7927 172.496 34.7117C173.01 34.626 173.279 34.5831 173.303 34.5831C173.332 34.5831 173.351 34.6212 173.36 34.6974C173.384 34.9928 173.439 35.2905 173.525 35.5906C173.773 35.3953 174.099 35.1524 174.504 34.8618C175.004 34.5569 175.487 34.4045 175.954 34.4045C176.85 34.4045 177.462 34.6641 177.791 35.1833C178.034 35.5644 178.155 36.1813 178.155 37.034C178.155 37.1817 178.15 37.408 178.141 37.7129C178.136 38.0177 178.134 38.2464 178.134 38.3988C178.134 38.718 178.139 39.1944 178.148 39.828C178.158 40.4615 178.162 40.9379 178.162 41.2571ZM185.579 37.5628C185.579 37.9153 185.427 38.1511 185.122 38.2702C184.917 38.3464 183.443 38.487 180.699 38.6918C180.761 39.111 180.992 39.4683 181.392 39.7637C181.773 40.0447 182.183 40.1852 182.621 40.1852C183.374 40.1852 184.065 39.9423 184.693 39.4564C184.77 39.3945 184.846 39.3325 184.922 39.2706C184.96 39.2706 184.984 39.2754 184.994 39.2849C185.008 39.2944 185.098 39.4612 185.265 39.7851C185.432 40.1043 185.515 40.2758 185.515 40.2996C185.515 40.3282 185.477 40.3829 185.401 40.4639C184.701 41.2071 183.803 41.5786 182.707 41.5786C181.602 41.5786 180.72 41.2499 180.063 40.5925C179.406 39.9304 179.077 39.0491 179.077 37.9487C179.077 36.9673 179.391 36.1123 180.02 35.3834C180.682 34.626 181.495 34.2473 182.457 34.2473C183.352 34.2473 184.1 34.5759 184.701 35.2333C185.286 35.8717 185.579 36.6482 185.579 37.5628ZM183.879 37.1269C183.879 36.7315 183.722 36.3814 183.407 36.0765C183.098 35.7716 182.747 35.6192 182.357 35.6192C181.919 35.6192 181.528 35.7955 181.185 36.148C180.847 36.5005 180.678 36.8959 180.678 37.3341C180.678 37.4342 180.763 37.4842 180.935 37.4842C181.64 37.4842 182.483 37.4128 183.464 37.2698C183.741 37.2317 183.879 37.1841 183.879 37.1269ZM193.454 31.4319C193.454 32.0464 193.425 32.9682 193.368 34.1972C193.316 35.4215 193.29 36.3385 193.29 36.9483C193.29 38.83 193.33 40.2543 193.411 41.2214L193.418 41.3142C193.423 41.3619 193.359 41.3928 193.225 41.4071C193.135 41.4167 193.006 41.4167 192.839 41.4071C192.639 41.3928 192.546 41.3857 192.561 41.3857C192.489 41.3857 192.384 41.3928 192.246 41.4071C192.108 41.4214 192.003 41.4286 191.932 41.4286C191.865 41.4286 191.825 41.2642 191.81 40.9355C191.801 40.6021 191.784 40.433 191.76 40.4282C191.732 40.4425 191.696 40.4734 191.653 40.5211C191.001 41.2261 190.25 41.5786 189.402 41.5786C188.44 41.5786 187.649 41.2118 187.03 40.4782C186.444 39.7875 186.151 38.9538 186.151 37.9773C186.151 36.9626 186.446 36.1099 187.037 35.4191C187.656 34.695 188.464 34.333 189.46 34.333C190.06 34.333 190.584 34.5093 191.032 34.8618C191.236 35.038 191.439 35.2167 191.639 35.3977C191.677 35.3834 191.696 35.3501 191.696 35.2977V32.9825C191.696 32.8253 191.689 32.5871 191.675 32.2679C191.66 31.9488 191.653 31.7082 191.653 31.5462C191.653 31.4319 191.691 31.3747 191.768 31.3747C191.944 31.3747 192.206 31.3604 192.554 31.3318C192.901 31.2985 193.161 31.2818 193.332 31.2818C193.413 31.2818 193.454 31.3318 193.454 31.4319ZM191.667 37.9344C191.667 37.3627 191.491 36.8602 191.139 36.4267C190.762 35.9646 190.296 35.7335 189.738 35.7335C189.152 35.7335 188.669 35.9622 188.288 36.4195C187.926 36.8482 187.745 37.3627 187.745 37.963C187.745 38.5346 187.933 39.0324 188.309 39.4564C188.695 39.9042 189.171 40.1281 189.738 40.1281C190.31 40.1281 190.781 39.9018 191.153 39.4492C191.496 39.0253 191.667 38.5203 191.667 37.9344Z" fill="#898989"></path></svg> 