<?xml version="1.0" encoding="UTF-8"?> <svg xmlns="http://www.w3.org/2000/svg" id="Layer_1" data-name="Layer 1" viewBox="0 0 90 90"><defs><style>.cls-1{fill:#003bc0;}.cls-2{fill:#85eef7;}</style></defs><title>Artboard 19</title><path class="cls-1" d="M15.37,61.7a51.81,51.81,0,0,1,26,6.49c13,7.31,28-3.65,28-3.65s-9.74-.81-21.91-18.67c0,0-11.37-21.11-24.36-24.36,0,0-10.55-2.43-20.29,1.63,0,0,13,0,21.92,16.23,0,0,8.93,18.67,24.35,25.17,0,0-4.87.81-14.61-4.06C34.45,60.48,24.71,55.61,15.37,61.7Z"></path><path class="cls-1" d="M59.61,54.8s1.63-30,27.6-30c0,0-2.43-7.31-19.48,0l4.06-4.06S47.44,25.57,56.36,49.11Z"></path><path class="cls-2" d="M62.86,58.86s4.06,3.24,8.12,4l6.49-3.24-4.06-.81S71,51.55,62.86,58.86Z"></path><path class="cls-2" d="M77.47,26.38S62.05,31.25,59.61,54.8c0,0-8.93-7.31,0-21.11C59.61,33.69,67.73,23.14,77.47,26.38Z"></path></svg> 